# Blender 4.0.2
# www.blender.org
o Wkey_2
v -0.744000 0.000000 -0.285000          <--- vertices of triangulated white key #2
v -0.744000 0.000000 0.127000
v -0.740000 0.002476 0.145000
v -0.728000 0.000000 0.159000
v -0.708000 0.000000 0.163000
v -0.708000 0.000000 0.163000
v -0.708000 0.000000 0.478000
v -0.840000 0.000000 0.478000
v -0.840000 0.000000 0.163000
v -0.824000 0.000000 0.160000
v -0.810000 0.000000 0.147000
v -0.806000 0.000000 0.128000
v -0.806000 0.000000 -0.285000
v -0.744000 0.029810 -0.285000
v -0.744000 0.029810 0.127000
v -0.740000 0.032285 0.145000
v -0.728000 0.029810 0.159000
v -0.708000 0.029810 0.163000
v -0.708000 0.029810 0.163000
v -0.708000 0.029810 0.478000
v -0.840000 0.029810 0.478000
v -0.840000 0.029810 0.163000
v -0.824000 0.029810 0.160000
v -0.810000 0.029810 0.147000
v -0.806000 0.029810 0.128000
v -0.806000 0.029810 -0.285000
v -0.179040 0.000000 -0.285000
v -0.179040 0.000000 0.127000
v -0.175040 0.002476 0.145000
v -0.163040 0.000000 0.159000
v -0.143040 0.000000 0.163000
v -0.143040 0.000000 0.163000
v -0.143040 0.000000 0.478000
v -0.275040 0.000000 0.478000
v -0.275040 0.000000 0.163000
v -0.259040 0.000000 0.160000
v -0.245040 0.000000 0.147000
v -0.241040 0.000000 0.128000
v -0.241040 0.000000 -0.285000
v -0.179040 0.029810 -0.285000
v -0.179040 0.029810 0.127000
v -0.175040 0.032285 0.145000
v -0.163040 0.029810 0.159000
v -0.143040 0.029810 0.163000
v -0.143040 0.029810 0.163000
v -0.143040 0.029810 0.478000
v -0.275040 0.029810 0.478000
v -0.275040 0.029810 0.163000
v -0.259040 0.029810 0.160000
v -0.245040 0.029810 0.147000
v -0.241040 0.029810 0.128000
v -0.241040 0.029810 -0.285000
vn -0.0000 1.0000 -0.0000           <--- vertex normals of triangulated white key #2
vn -0.0000 -0.0000 -1.0000
vn 1.0000 -0.0000 -0.0000
vn -1.0000 -0.0000 -0.0000
vn 0.1843 -0.0000 0.9829
vn -0.9762 -0.0000 0.2169
vn 0.6805 -0.0000 0.7328
vn -0.7593 -0.0000 0.6508
vn 0.9785 -0.0000 0.2060
vn -0.1961 -0.0000 0.9806
vn -0.0000 -1.0000 -0.0000
vn 0.6804 -0.0000 0.7328
vn 0.9786 -0.0000 0.2060
vn 0.0356 -0.9993 0.0075
vn 0.0022 -0.9907 0.1358
vn 0.0290 -0.9798 -0.1981
vn -0.0022 0.9907 -0.1358
vn -0.0356 0.9993 -0.0075
vn -0.0290 0.9798 0.1981
s 0
f 6//1 5//1 7//1                   <--- faces/surfaces = indices of triangulated white key #2
f 19//1 20//1 18//1                 --- example: vertex (19,20,18) / texture (none) / normal (1,1,1)
f 8//2 20//2 7//2                   --- that means, we'll need vertices #19 #20 and #18 from the vertices mentioned sa taas and their normal (kung san sila nakaharap) is normal #1 which according sa taas is -0.0000 1.0000 -0.0000 (positive y so sa taas nakaharap yung triangle na to)
f 9//3 21//3 8//3
f 2//4 14//4 1//4
f 10//5 22//5 9//5
f 3//6 15//6 2//6
f 11//7 23//7 10//7
f 3//8 17//8 16//8
f 12//9 24//9 11//9
f 5//10 17//10 4//10
f 13//3 25//3 12//3
f 5//1 19//1 18//1
f 13//2 14//2 1//2
f 7//4 19//4 6//4
f 5//3 20//3 7//3
f 21//11 23//11 17//11
f 10//1 8//1 4//1
f 8//2 21//2 20//2
f 9//3 22//3 21//3
f 2//4 15//4 14//4
f 10//5 23//5 22//5
f 3//6 16//6 15//6
f 11//12 24//12 23//12
f 3//8 4//8 17//8
f 12//13 25//13 24//13
f 5//10 18//10 17//10
f 13//3 26//3 25//3
f 5//1 6//1 19//1
f 13//2 26//2 14//2
f 7//4 20//4 19//4
f 5//3 18//3 20//3
f 25//11 26//11 15//11
f 26//11 14//11 15//11
f 24//14 25//14 16//14
f 25//15 15//15 16//15
f 21//11 22//11 23//11
f 23//11 24//11 17//11
f 24//16 16//16 17//16
f 17//11 19//11 20//11
f 20//11 21//11 17//11
f 2//1 1//1 13//1
f 2//1 13//1 12//1
f 3//17 2//17 12//17
f 3//18 12//18 11//18
f 7//1 6//1 4//1
f 4//19 3//19 11//19
f 10//1 9//1 8//1
f 4//1 11//1 10//1
f 8//1 7//1 4//1
f 32//1 31//1 33//1
f 45//1 46//1 44//1
f 34//2 46//2 33//2
f 35//3 47//3 34//3
f 28//4 40//4 27//4
f 36//5 48//5 35//5
f 29//6 41//6 28//6
f 37//7 49//7 36//7
f 29//8 43//8 42//8
f 38//9 50//9 37//9
f 31//10 43//10 30//10
f 39//3 51//3 38//3
f 31//1 45//1 44//1
f 39//2 40//2 27//2
f 33//4 45//4 32//4
f 31//3 46//3 33//3
f 47//11 49//11 43//11
f 36//1 34//1 30//1
f 34//2 47//2 46//2
f 35//3 48//3 47//3
f 28//4 41//4 40//4
f 36//5 49//5 48//5
f 29//6 42//6 41//6
f 37//7 50//7 49//7
f 29//8 30//8 43//8
f 38//9 51//9 50//9
f 31//10 44//10 43//10
f 39//3 52//3 51//3
f 31//1 32//1 45//1
f 39//2 52//2 40//2
f 33//4 46//4 45//4
f 31//3 44//3 46//3
f 51//11 52//11 41//11
f 52//11 40//11 41//11
f 50//14 51//14 42//14
f 51//15 41//15 42//15
f 47//11 48//11 49//11
f 49//11 50//11 43//11
f 50//16 42//16 43//16
f 43//11 45//11 46//11
f 46//11 47//11 43//11
f 28//1 27//1 39//1
f 28//1 39//1 38//1
f 29//17 28//17 38//17
f 29//18 38//18 37//18
f 33//1 32//1 30//1
f 30//19 29//19 37//19
f 36//1 35//1 34//1
f 30//1 37//1 36//1
f 34//1 33//1 30//1
o Wkey_1
v -0.906000 0.000000 -0.285000
v -0.906000 0.000000 0.132000
v -0.899000 0.000000 0.149000
v -0.884000 0.000000 0.160000
v -0.848000 0.000000 0.163000
v -0.848000 0.000000 0.478000
v -0.943000 0.000000 0.478000
v -0.964000 0.000000 0.475000
v -0.978000 0.000000 0.458000
v -0.982000 0.000000 0.436000
v -0.982000 0.000000 -0.285000
v -0.906000 0.030000 -0.285000
v -0.906000 0.030000 0.132000
v -0.899000 0.030000 0.149000
v -0.884000 0.030000 0.160000
v -0.848000 0.030000 0.163000
v -0.848000 0.030000 0.478000
v -0.943000 0.030000 0.478000
v -0.964000 0.030000 0.475000
v -0.978000 0.030000 0.458000
v -0.982000 0.030000 0.436000
v -0.982000 0.030000 -0.285000
vn -0.0000 -1.0000 -0.0000
vn 1.0000 -0.0000 -0.0000
vn -0.0000 -0.0000 -1.0000
vn -1.0000 -0.0000 -0.0000
vn -0.9839 -0.0000 0.1789
vn -0.7719 -0.0000 0.6357
vn -0.1414 -0.0000 0.9899
vn -0.0000 -0.0000 1.0000
vn 0.0830 -0.0000 -0.9965
vn 0.5914 -0.0000 -0.8064
vn 0.9247 -0.0000 -0.3808
s 0
f 54//20 55//20 56//20 57//20 58//20 59//20 60//20 61//20 62//20 63//20 53//20
f 73//20 74//20 64//20 65//20 66//20 67//20 68//20 69//20 70//20 71//20 72//20
f 54//21 53//21 64//21 65//21
f 64//22 53//22 63//22 74//22
f 74//23 63//23 62//23 73//23
f 73//24 62//24 61//24 72//24
f 72//25 61//25 60//25 71//25
f 71//26 60//26 59//26 70//26
f 70//27 59//27 58//27 69//27
f 69//21 58//21 57//21 68//21
f 68//28 57//28 56//28 67//28
f 67//29 56//29 55//29 66//29
f 66//30 55//30 54//30 65//30
o Wkey_3
v -0.641000 0.000000 -0.285000
v -0.641000 0.000000 0.129000
v -0.643000 0.000000 0.146000
v -0.653000 0.000000 0.155000
v -0.665000 0.000000 0.163000
v -0.700000 0.000000 0.163000
v -0.700000 0.000000 0.478000
v -0.567000 0.000000 0.478000
v -0.567000 0.000000 -0.285000
v -0.641000 0.030000 -0.285000
v -0.641000 0.030000 0.129000
v -0.643000 0.030000 0.146000
v -0.653000 0.030000 0.155000
v -0.665000 0.030000 0.163000
v -0.700000 0.030000 0.163000
v -0.700000 0.030000 0.478000
v -0.567000 0.030000 0.478000
v -0.567000 0.030000 -0.285000
vn 0.6690 -0.0000 0.7433
vn -0.0000 -0.0000 1.0000
vn -1.0000 -0.0000 -0.0000
vn 0.5547 -0.0000 0.8321
vn 1.0000 -0.0000 -0.0000
vn 0.9932 -0.0000 0.1168
vn -0.0000 -0.0000 -1.0000
vn -0.0000 -1.0000 -0.0000
vn -0.0000 1.0000 -0.0000
s 0
f 78//31 77//31 86//31 87//31
f 75//32 83//32 92//32 84//32
f 83//33 82//33 91//33 92//33
f 79//34 78//34 87//34 88//34
f 80//32 79//32 88//32 89//32
f 81//35 80//35 89//35 90//35
f 76//35 75//35 84//35 85//35
f 77//36 76//36 85//36 86//36
f 82//37 81//37 90//37 91//37
f 85//38 84//38 92//38 91//38 90//38 89//38 88//38 87//38 86//38
f 76//39 77//39 78//39 79//39 80//39 81//39 82//39 83//39 75//39
o Wkey_4
v -0.558000 0.000000 -0.285000
v -0.558000 0.000000 0.478000
v -0.427000 0.000000 0.478000
v -0.428000 0.000000 0.163000
v -0.467000 0.000000 0.160000
v -0.485000 0.000000 0.149000
v -0.492000 0.000000 0.132000
v -0.492000 0.000000 -0.285000
v -0.558000 0.030000 -0.285000
v -0.558000 0.030000 0.478000
v -0.427000 0.030000 0.478000
v -0.428000 0.030000 0.163000
v -0.467000 0.030000 0.160000
v -0.485000 0.030000 0.149000
v -0.492000 0.030000 0.132000
v -0.492000 0.030000 -0.285000
vn 0.0767 -0.0000 -0.9971
vn -0.0000 -0.0000 1.0000
vn 1.0000 -0.0000 -0.0000
vn 0.5214 -0.0000 -0.8533
vn 1.0000 -0.0000 -0.0032
vn -1.0000 -0.0000 -0.0000
vn 0.9247 -0.0000 -0.3807
vn -0.0000 -1.0000 -0.0000
vn -0.0000 1.0000 -0.0000
s 0
f 96//40 97//40 105//40 104//40
f 94//41 95//41 103//41 102//41
f 99//42 100//42 108//42 107//42
f 97//43 98//43 106//43 105//43
f 95//44 96//44 104//44 103//44
f 93//45 94//45 102//45 101//45
f 93//41 100//41 108//41 101//41
f 98//46 99//46 107//46 106//46
f 93//47 100//47 99//47 98//47 97//47 96//47 95//47 94//47
f 101//48 102//48 103//48 104//48 105//48 106//48 107//48 108//48
o Wkey_5
v -0.321600 0.000000 -0.285000
v -0.321600 0.000000 0.127000
v -0.317600 0.002476 0.145000
v -0.305600 0.000000 0.159000
v -0.285600 0.000000 0.163000
v -0.285600 0.000000 0.163000
v -0.285600 0.000000 0.478000
v -0.417600 0.000000 0.478000
v -0.417600 0.000000 0.163000
v -0.401600 0.000000 0.160000
v -0.387600 0.000000 0.147000
v -0.383600 0.000000 0.128000
v -0.383600 0.000000 -0.285000
v -0.321600 0.029810 -0.285000
v -0.321600 0.029810 0.127000
v -0.317600 0.032285 0.145000
v -0.305600 0.029810 0.159000
v -0.285600 0.029810 0.163000
v -0.285600 0.029810 0.163000
v -0.285600 0.029810 0.478000
v -0.417600 0.029810 0.478000
v -0.417600 0.029810 0.163000
v -0.401600 0.029810 0.160000
v -0.387600 0.029810 0.147000
v -0.383600 0.029810 0.128000
v -0.383600 0.029810 -0.285000
vn -0.0000 1.0000 -0.0000
vn -0.0000 -0.0000 -1.0000
vn 1.0000 -0.0000 -0.0000
vn -1.0000 -0.0000 -0.0000
vn 0.1843 -0.0000 0.9829
vn -0.9762 -0.0000 0.2169
vn 0.6805 -0.0000 0.7328
vn -0.7593 -0.0000 0.6508
vn 0.9785 -0.0000 0.2060
vn -0.1961 -0.0000 0.9806
vn 0.0006 -1.0000 -0.0003
vn -0.0006 1.0000 0.0003
s 0
f 114//49 113//49 115//49
f 127//49 128//49 126//49
f 115//50 116//50 129//50 128//50
f 116//51 117//51 130//51 129//51
f 109//52 110//52 123//52 122//52
f 117//53 118//53 131//53 130//53
f 110//54 111//54 124//54 123//54
f 118//55 119//55 132//55 131//55
f 111//56 112//56 125//56 124//56
f 119//57 120//57 133//57 132//57
f 112//58 113//58 126//58 125//58
f 120//51 121//51 134//51 133//51
f 113//49 114//49 127//49 126//49
f 109//50 121//50 134//50 122//50
f 114//52 115//52 128//52 127//52
f 115//51 113//51 126//51 128//51
f 134//59 122//59 123//59 124//59 125//59 127//59 128//59 129//59 130//59 131//59 132//59 133//59
f 109//60 121//60 120//60 119//60 118//60 117//60 116//60 115//60 114//60 112//60 111//60 110//60
